<svg width="27" height="30" viewBox="0 0 27 30" fill="none" xmlns="http://www.w3.org/2000/svg">
<path d="M13.4989 16.8953C17.742 16.8953 21.1943 13.1056 21.1943 8.44764C21.1943 2.99994 18.4615 0 13.4989 0C8.60761 0 5.80347 3.07913 5.80347 8.44764C5.80347 13.1056 9.25574 16.8953 13.4989 16.8953ZM13.4989 0.891778C19.0018 0.891778 20.157 5.00038 20.157 8.44764C20.157 12.614 17.1702 16.0035 13.4989 16.0035C9.82752 16.0035 6.84081 12.614 6.84081 8.44764C6.84081 5.62534 7.70554 0.891778 13.4989 0.891778Z" fill="black"/>
<path d="M26.9917 24.7707C26.8756 20.4224 22.137 15.7402 21.9353 15.5433L21.3569 14.9783L21.059 15.6867C21.0415 15.7281 19.254 19.811 13.6001 19.8124H13.4963H13.4009C7.76521 19.8124 6.01252 15.8536 5.94032 15.686L5.64074 14.9811L5.06397 15.544C4.86231 15.7409 0.123734 20.4231 0.00838129 24.7721C-0.0978426 28.7837 0.829956 29.5571 1.41336 29.6619L25.5544 29.6698L25.6083 29.6598C26.1702 29.5556 27.0971 28.7823 26.9917 24.7707ZM1.66481 28.7773C1.49718 28.5982 0.965226 27.7878 1.04489 24.7907C1.13037 21.5375 4.23161 17.8683 5.33866 16.6605C6.176 17.9675 8.5121 20.7028 13.4009 20.7028H13.4955H13.5992C18.4864 20.7028 20.8241 17.9675 21.6606 16.6605C22.766 17.8676 25.8673 21.5375 25.9544 24.7907C26.0341 27.7878 25.5013 28.5982 25.3336 28.7773H1.66481Z" fill="black"/>
</svg>
