<svg width="27" height="29" viewBox="0 0 27 29" fill="none" xmlns="http://www.w3.org/2000/svg">
<path d="M21.9712 6.98603H17.692V5.49614C17.692 2.46555 15.3869 0 12.5533 0C9.71984 0 7.41485 2.46555 7.41485 5.49614V6.98603H3.72788C3.41698 6.98603 3.1648 7.25552 3.1648 7.58829L0 27.703C0 28.0358 0.251958 28.3054 0.563361 28.3054H25.462C25.7732 28.3054 26.0255 28.0358 26.0255 27.703L22.5344 7.58829C22.5344 7.25546 22.2823 6.98603 21.9712 6.98603ZM8.54079 5.49614C8.54079 3.12965 10.341 1.20458 12.5531 1.20458C14.7656 1.20458 16.5657 3.13001 16.5657 5.49614V6.98603H8.54079V5.49614ZM24.8993 27.1008H1.12622L4.29062 8.19031H7.41435V10.8425C7.14267 11.0371 6.96405 11.3678 6.96405 11.7435C6.96405 12.3421 7.41732 12.8276 7.97743 12.8276C8.53687 12.8276 8.99098 12.3425 8.99098 11.7435C8.99098 11.3675 8.81186 11.0371 8.54029 10.8425V8.19031H16.566V10.8425C16.2943 11.0371 16.1154 11.3678 16.1154 11.7435C16.1154 12.3421 16.5689 12.8276 17.129 12.8276C17.6885 12.8276 18.1425 12.3425 18.1425 11.7435C18.1425 11.3675 17.9631 11.0371 17.6917 10.8425V8.19031H21.408L24.8993 27.1008Z" fill="black"/>
</svg>
