<svg width="1600" height="1227" viewBox="0 0 1600 1227" fill="none" xmlns="http://www.w3.org/2000/svg" xmlns:xlink="http://www.w3.org/1999/xlink">
<path d="M0 269L228 186L348.5 156L408 147.5L466.5 141L578.5 134.5L1037.5 195.5L1235 161L1437 82.4999L1443 80.4999L1535.5 40.4999L1600 26.9999V269V977L1548 987.5L1362.5 1066L1250 1104L1130.5 1129.5L1026.5 1138.5L792.5 1105L548.5 1075.5L303.5 1104L204.5 1138.5L96 1170L0 1208V269Z" fill="#FDFDFC"/>
<path fill-rule="evenodd" clip-rule="evenodd" d="M0 1208.27L89.3333 1174.5C177.333 1140.73 356 1073.19 533.333 1073.19C710.667 1073.19 889.333 1140.73 1066.67 1132.29C1244 1123.85 1422.67 1039.42 1510.67 997.212L1600 955V997.212V982.652C1512 982.652 1244 1149.07 1066.67 1149.07C889.333 1149.07 710.667 1093.26 533.333 1093.26C356 1093.26 183.615 1154.1 97.561 1188.29L0 1227V1208.27Z" fill="#DDDDDD"/>
<g filter="url(#filter0_d_69_217)">
<rect x="215" y="333" width="310" height="301" fill="white"/>
<rect x="215.1" y="333.1" width="309.8" height="300.8" stroke="black" stroke-width="0.2"/>
</g>
<path fill-rule="evenodd" clip-rule="evenodd" d="M-4.5 215.5L31 202.5L77.5 188C165.503 154.569 355.825 109.482 533.047 109.789C710.269 110.095 888.692 186.863 1065.93 178.774C1243.17 170.685 1421.87 87.0356 1509.88 45.2087L1599.23 3.38419L1599.16 45.3633L1599.19 30.8841C1511.24 30.7319 1243.12 195.768 1065.9 195.461C888.678 195.154 710.219 139.345 532.997 139.039C355.774 138.732 183.392 198.934 97.3336 232.785L-0.232882 271.116L-4.5 215.5Z" fill="#DDDDDD"/>
</svg>
